<?xml version="1.0" encoding="UTF-8"?>
<svg xmlns="http://www.w3.org/2000/svg" xmlns:xlink="http://www.w3.org/1999/xlink"
     width="400" height="300" viewBox="-200.0 -150.0 400 300">
<defs>
</defs>
<circle cx="-10" cy="0" r="5" stroke="black" fill="none">
<animate attributeName="cy" dur="2s" values="25;-10;25" repeatCount="indefinite" />
<animate attributeName="stroke-width" dur="2s" values="1;3;1" repeatCount="indefinite" />
</circle>
<g id="linea" fill="none">
<path d="m-40,0 l20,0 a10,30,0,0,0,20,0 l2.429383,0.28143 l18.152333,-0.30693 c3.49307,-12.37936,2.86094,-18.08889,0.91838,-33.97145 c-4.68294,1.70273,-15.30755,8.75733,-15.30755,8.75733 c0.46102,0.62149,1.01953,0.11307,0.67433,1.79185 c-1.3829,0.91509,-2.73356,1.43825,-4.855083,1.70044 c-0.86305,3.03193,-2.931763,5.37421,-4.477861,5.09727 c1.741505,-2.91355,3.234609,-5.63534,3.82074,-8.77076 L19.906576,-40.79305 c-7.27673,-11.33972,10.92349,-18.31349,13.06574,-15.01566 c0.0202,5.30202,-2.96965,5.23538,-5.35128,6.00817 l2.14871,0.33858 c-1.47967,4.30676,-3.44066,6.71017,-3.40504,9.97716 c1.0171,-0.2658,2.28548,-1.61054,3.68571,-3.8235 c0.80247,-2.51127,2.31847,-1.73468,2.77611,-0.94202 c5.13388,8.39004,4.77017,16.95265,5.06909,20.54731 c0.29892,3.59465,-0.9617,17.03329,-1.62619,23.13325 l33.30925,0.0662" stroke-width="1" stroke="black" fill="transparent" stroke-dasharray="1000">
<animate attributeName="stroke-dasharray" dur="8s" values="800;800" repeatCount="indefinite" />
<animate attributeName="stroke-dashoffset" dur="8s" values="800;0;800" repeatCount="indefinite" />
</path>
</g>
</svg>